<?xml version="1.0" encoding="utf-8"?>
<svg xmlns="http://www.w3.org/2000/svg" viewBox="0 0 900 850" width="100%" height="100%" style="background-color: #0f172a; font-family: 'Fira Code', 'JetBrains Mono', Consolas, monospace;">
  <defs>
    <!-- Use orient="auto" which is universally supported for marker-end -->
    <marker id="arrow" viewBox="0 0 10 10" refX="9" refY="5" markerWidth="6" markerHeight="6" orient="auto">
      <path d="M 0 0 L 10 5 L 0 10 z" fill="#64748b" />
    </marker>
  </defs>

  <!-- Title -->
  <text x="450" y="40" font-size="24" font-weight="bold" text-anchor="middle" fill="#f8fafc">Amissio Architecture</text>

  <g transform="translate(50, 100)">
    <rect width="160" height="60" rx="6" fill="#1e293b" stroke="#38bdf8" stroke-width="2" />
    <text x="80.0" y="24.0" font-size="14" font-weight="bold" text-anchor="middle" fill="#38bdf8">UI: Fetch Notes</text>
    <text x="80.0" y="46.0" font-size="12" text-anchor="middle" fill="#94a3b8">React / Vite</text>
  </g>

  <g transform="translate(50, 220)">
    <rect width="160" height="60" rx="6" fill="#1e293b" stroke="#38bdf8" stroke-width="2" />
    <text x="80.0" y="24.0" font-size="14" font-weight="bold" text-anchor="middle" fill="#38bdf8">UI: Chat</text>
    <text x="80.0" y="46.0" font-size="12" text-anchor="middle" fill="#94a3b8">React / Vite</text>
  </g>

  <g transform="translate(300, 160)">
    <rect width="160" height="60" rx="6" fill="#1e293b" stroke="#4ade80" stroke-width="2" />
    <text x="80.0" y="24.0" font-size="14" font-weight="bold" text-anchor="middle" fill="#4ade80">FastAPI Backend</text>
    <text x="80.0" y="46.0" font-size="12" text-anchor="middle" fill="#94a3b8">Python</text>
  </g>

  <g transform="translate(300, 300)">
    <rect width="160" height="60" rx="6" fill="#1e293b" stroke="#fbbf24" stroke-width="2" />
    <text x="80.0" y="24.0" font-size="14" font-weight="bold" text-anchor="middle" fill="#fbbf24">Video Downloader</text>
    <text x="80.0" y="46.0" font-size="12" text-anchor="middle" fill="#94a3b8">yt-dlp</text>
  </g>

  <g transform="translate(150, 420)">
    <rect width="160" height="60" rx="6" fill="#1e293b" stroke="#c084fc" stroke-width="2" />
    <text x="80.0" y="24.0" font-size="14" font-weight="bold" text-anchor="middle" fill="#c084fc">Audio Extraction</text>
    <text x="80.0" y="46.0" font-size="12" text-anchor="middle" fill="#94a3b8">WAV</text>
  </g>

  <g transform="translate(450, 420)">
    <rect width="160" height="60" rx="6" fill="#1e293b" stroke="#c084fc" stroke-width="2" />
    <text x="80.0" y="24.0" font-size="14" font-weight="bold" text-anchor="middle" fill="#c084fc">Frame Extraction</text>
    <text x="80.0" y="46.0" font-size="12" text-anchor="middle" fill="#94a3b8">OpenCV</text>
  </g>

  <g transform="translate(150, 540)">
    <rect width="160" height="60" rx="6" fill="#1e293b" stroke="#f472b6" stroke-width="2" />
    <text x="80.0" y="24.0" font-size="14" font-weight="bold" text-anchor="middle" fill="#f472b6">Transcription</text>
    <text x="80.0" y="46.0" font-size="12" text-anchor="middle" fill="#94a3b8">faster-whisper</text>
  </g>

  <g transform="translate(450, 540)">
    <rect width="160" height="60" rx="6" fill="#1e293b" stroke="#f472b6" stroke-width="2" />
    <text x="80.0" y="24.0" font-size="14" font-weight="bold" text-anchor="middle" fill="#f472b6">Vision &amp; OCR</text>
    <text x="80.0" y="46.0" font-size="12" text-anchor="middle" fill="#94a3b8">Gemini 2.5 Flash</text>
  </g>

  <g transform="translate(300, 660)">
    <rect width="160" height="60" rx="6" fill="#1e293b" stroke="#818cf8" stroke-width="2" />
    <text x="80.0" y="24.0" font-size="14" font-weight="bold" text-anchor="middle" fill="#818cf8">Semantic Chunking</text>
    <text x="80.0" y="46.0" font-size="12" text-anchor="middle" fill="#94a3b8">Text &amp; Context</text>
  </g>

  <g transform="translate(650, 100)">
    <rect width="160" height="60" rx="6" fill="#1e293b" stroke="#f8fafc" stroke-width="2" />
    <text x="80.0" y="24.0" font-size="14" font-weight="bold" text-anchor="middle" fill="#f8fafc">Generated Notes</text>
    <text x="80.0" y="46.0" font-size="12" text-anchor="middle" fill="#94a3b8">Markdown</text>
  </g>

  <g transform="translate(650, 220)">
    <rect width="160" height="60" rx="6" fill="#1e293b" stroke="#f472b6" stroke-width="2" />
    <text x="80.0" y="24.0" font-size="14" font-weight="bold" text-anchor="middle" fill="#f472b6">Map-Reduce Synth</text>
    <text x="80.0" y="46.0" font-size="12" text-anchor="middle" fill="#94a3b8">Gemini 2.5 Flash</text>
  </g>

  <g transform="translate(650, 340)">
    <rect width="160" height="60" rx="6" fill="#1e293b" stroke="#2dd4bf" stroke-width="2" />
    <text x="80.0" y="24.0" font-size="14" font-weight="bold" text-anchor="middle" fill="#2dd4bf">Chat RAG Engine</text>
    <text x="80.0" y="46.0" font-size="12" text-anchor="middle" fill="#94a3b8">Retrieval + LLM</text>
  </g>

  <g transform="translate(650, 660)">
    <rect width="160" height="60" rx="6" fill="#1e293b" stroke="#f87171" stroke-width="2" />
    <text x="80.0" y="24.0" font-size="14" font-weight="bold" text-anchor="middle" fill="#f87171">Vector DB</text>
    <text x="80.0" y="46.0" font-size="12" text-anchor="middle" fill="#94a3b8">Qdrant</text>
  </g>
  <path d="M 210 130 L 250 130 L 250 190" fill="none" stroke="#64748b" stroke-width="2" />
  <path d="M 210 250 L 250 250 L 250 190" fill="none" stroke="#64748b" stroke-width="2" />
  <path d="M 250 190 L 300 190" fill="none" stroke="#64748b" stroke-width="2" marker-end="url(#arrow)" />
  <path d="M 460 190 L 550 190 L 550 370 L 650 370" fill="none" stroke="#64748b" stroke-width="2" marker-end="url(#arrow)" />
  <line x1="380" y1="220" x2="380" y2="300" stroke="#64748b" stroke-width="2" marker-end="url(#arrow)" />
  <path d="M 380 360 L 380 390" fill="none" stroke="#64748b" stroke-width="2" />
  <path d="M 380 390 L 230 390 L 230 420" fill="none" stroke="#64748b" stroke-width="2" marker-end="url(#arrow)" />
  <path d="M 380 390 L 530 390 L 530 420" fill="none" stroke="#64748b" stroke-width="2" marker-end="url(#arrow)" />
  <line x1="230" y1="480" x2="230" y2="540" stroke="#64748b" stroke-width="2" marker-end="url(#arrow)" />
  <line x1="530" y1="480" x2="530" y2="540" stroke="#64748b" stroke-width="2" marker-end="url(#arrow)" />
  <path d="M 230 600 L 230 630 L 380 630" fill="none" stroke="#64748b" stroke-width="2" />
  <path d="M 530 600 L 530 630 L 380 630" fill="none" stroke="#64748b" stroke-width="2" />
  <path d="M 380 630 L 380 660" fill="none" stroke="#64748b" stroke-width="2" marker-end="url(#arrow)" />
  <line x1="460" y1="690" x2="650" y2="690" stroke="#64748b" stroke-width="2" marker-end="url(#arrow)" />
  <path d="M 690 660 L 690 630 L 625 630 L 625 250 L 650 250" fill="none" stroke="#64748b" stroke-width="2" marker-end="url(#arrow)" />
  <line x1="730" y1="660" x2="730" y2="400" stroke="#64748b" stroke-width="2" marker-end="url(#arrow)" />
  <line x1="730" y1="220" x2="730" y2="160" stroke="#64748b" stroke-width="2" marker-end="url(#arrow)" />
  <path d="M 810 130 L 870 130 L 870 810 L 15 810 L 15 130 L 50 130" fill="none" stroke="#64748b" stroke-width="2" marker-end="url(#arrow)" />
  <path d="M 810 370 L 840 370 L 840 780 L 30 780 L 30 250 L 50 250" fill="none" stroke="#64748b" stroke-width="2" marker-end="url(#arrow)" />
<text x="230" y="120" font-size="12" fill="#94a3b8" text-anchor="middle">URL</text>
<text x="230" y="240" font-size="12" fill="#94a3b8" text-anchor="middle">Query</text>
<text x="600" y="360" font-size="12" fill="#94a3b8" text-anchor="middle">Fetch Answer</text>
<text x="635" y="470" font-size="12" fill="#94a3b8" text-anchor="start">Chunks</text>
<text x="740" y="530" font-size="12" fill="#94a3b8" text-anchor="start">Context</text>
<text x="450" y="765" font-size="12" fill="#38bdf8" text-anchor="middle">Response Streams (Returned from backend)</text>
</svg>